<?xml version="1.0" standalone="no"?>
<svg viewBox="0 0 200 200" xmlns="http://www.w3.org/2000/svg">
  <path fill="#FF0066" d="M45,-62.2C55.1,-54.6,57.8,-37.1,62.9,-20.7C67.9,-4.2,75.2,11.3,72.2,24.3C69.1,37.3,55.7,47.8,42,55.2C28.2,62.6,14.1,67.1,-2.5,70.5C-19.1,73.9,-38.1,76.3,-53.6,69.4C-69.1,62.5,-80.9,46.3,-84.7,28.9C-88.5,11.4,-84.2,-7.3,-77.6,-24.4C-70.9,-41.6,-61.9,-57.1,-48.5,-63.6C-35.2,-70.1,-17.6,-67.6,-0.1,-67.5C17.5,-67.3,34.9,-69.7,45,-62.2Z" transform="translate(100 100)" />
</svg>
