<?xml version="1.0" standalone="no"?>
<svg viewBox="0 0 200 200" xmlns="http://www.w3.org/2000/svg">
  <path fill="#FF0066" d="M40.6,-56.3C47.5,-50.8,44.4,-32.1,49,-16.3C53.7,-0.5,65.9,12.5,66.6,25.1C67.3,37.7,56.3,50,43.2,55.6C30.2,61.1,15.1,59.8,-1.4,61.7C-17.9,63.6,-35.7,68.7,-46.9,62.6C-58,56.4,-62.5,39.1,-64.3,23.3C-66.2,7.5,-65.4,-6.8,-62.8,-22.2C-60.2,-37.6,-55.8,-54.1,-45,-58.3C-34.2,-62.6,-17.1,-54.4,-0.1,-54.2C16.8,-54.1,33.7,-61.8,40.6,-56.3Z" transform="translate(100 100)" />
</svg>
