<?xml version="1.0" standalone="no"?>
<svg viewBox="0 0 200 200" xmlns="http://www.w3.org/2000/svg">
  <path fill="#FF0066" d="M45.2,-65.5C58.5,-70.7,69,-58.3,63.5,-44.4C57.9,-30.6,36.4,-15.3,36.8,0.3C37.3,15.8,59.7,31.6,62.4,40.5C65,49.3,47.8,51.2,34.1,53.6C20.4,56,10.2,59,3.8,52.4C-2.6,45.8,-5.3,29.8,-16.5,25.9C-27.8,22.1,-47.8,30.6,-58.8,28.3C-69.8,26.1,-72,13,-72.9,-0.5C-73.8,-14.1,-73.4,-28.1,-62.4,-30.4C-51.4,-32.7,-29.7,-23.3,-17.5,-18.7C-5.3,-14.1,-2.7,-14.4,6.7,-25.9C16,-37.5,32,-60.3,45.2,-65.5Z" transform="translate(100 100)" />
</svg>
