<?xml version="1.0" standalone="no"?>
<svg viewBox="0 0 200 200" xmlns="http://www.w3.org/2000/svg">
  <path fill="#FF0066" d="M31.2,-53.8C44.2,-46.5,61,-45.8,57.1,-37.9C53.1,-30,28.3,-15,29.7,0.8C31.1,16.6,58.8,33.3,60,36.4C61.2,39.4,35.9,29,21.5,35.4C7.1,41.8,3.6,65.1,-5.4,74.4C-14.3,83.7,-28.6,78.9,-31.6,65.9C-34.6,53,-26.4,31.7,-24.1,19.4C-21.8,7,-25.5,3.5,-33.5,-4.6C-41.5,-12.7,-53.9,-25.5,-52.7,-31.9C-51.6,-38.3,-36.9,-38.4,-25.9,-46.8C-14.8,-55.1,-7.4,-71.7,0.8,-73.2C9.1,-74.6,18.2,-61,31.2,-53.8Z" transform="translate(100 100)" />
</svg>
